<?xml version="1.0" encoding="UTF-8" standalone="no"?>
<!DOCTYPE svg PUBLIC "-//W3C//DTD SVG 1.1//EN"
 "http://www.w3.org/Graphics/SVG/1.1/DTD/svg11.dtd">
<!-- Generated by graphviz version 2.43.0 (0)
 -->
<!-- Title: main.c Pages: 1 -->
<!--zoomable 203 -->

<svg id="main" version="1.1" xmlns="http://www.w3.org/2000/svg" xmlns:xlink="http://www.w3.org/1999/xlink" xml:space="preserve" onload="init(evt)">

<style type="text/css"><![CDATA[
.node, .edge {opacity: 0.7;}
.node.selected, .edge.selected {opacity: 1;}
.edge:hover path { stroke: red; }
.edge:hover polygon { stroke: red; fill: red; }
]]></style>

<defs>
  <circle id="rim" cx="0" cy="0" r="7"/>
  <circle id="rim2" cx="0" cy="0" r="3.5"/>
  <g id="zoomPlus">
    <use xlink:href="#rim" fill="#404040"><set attributeName="fill" to="#808080" begin="zoomplus.mouseover" end="zoomplus.mouseout"/></use>
    <path d="M-4,0h8M0,-4v8" fill="none" stroke="white" stroke-width="1.5" pointer-events="none"/>
  </g>
  <g id="zoomMin">
    <use xlink:href="#rim" fill="#404040"><set attributeName="fill" to="#808080" begin="zoomminus.mouseover" end="zoomminus.mouseout"/></use>
    <path d="M-4,0h8" fill="none" stroke="white" stroke-width="1.5" pointer-events="none"/>
  </g>
  <g id="arrowUp" transform="translate(30 24)">
    <use xlink:href="#rim"/>
    <path pointer-events="none" fill="none" stroke="white" stroke-width="1.5" d="M0,-3.0v7 M-2.5,-0.5L0,-3.0L2.5,-0.5"/>
  </g>
  <g id="arrowRight" transform="rotate(90) translate(36 -43)">
    <use xlink:href="#rim"/>
    <path pointer-events="none" fill="none" stroke="white" stroke-width="1.5" d="M0,-3.0v7 M-2.5,-0.5L0,-3.0L2.5,-0.5"/>
  </g>
  <g id="arrowDown" transform="rotate(180) translate(-30 -48)">
    <use xlink:href="#rim"/>
    <path pointer-events="none" fill="none" stroke="white" stroke-width="1.5" d="M0,-3.0v7 M-2.5,-0.5L0,-3.0L2.5,-0.5"/>
  </g>
  <g id="arrowLeft" transform="rotate(270) translate(-36 17)">
    <use xlink:href="#rim"/>
    <path pointer-events="none" fill="none" stroke="white" stroke-width="1.5" d="M0,-3.0v7 M-2.5,-0.5L0,-3.0L2.5,-0.5"/>
  </g>
  <g id="resetDef">
    <use xlink:href="#rim2" fill="#404040"><set attributeName="fill" to="#808080" begin="reset.mouseover" end="reset.mouseout"/></use>
  </g>
</defs>
<script type="application/ecmascript">
var viewWidth = 1545;
var viewHeight = 203;
var sectionId = 'dynsection-0';
</script>
<script type="application/ecmascript" xlink:href="svg.min.js"/>
<svg id="graph" class="graph">
<g id="viewport">
<title>main.c</title>
<!-- Node1 -->
<g id="Node000001" class="node">
<title>Node1</title>
<g id="a_Node000001"><a xlink:title=" ">
<polygon fill="#999999" stroke="#666666" points="724,-195 674,-195 674,-176 724,-176 724,-195"/>
<text text-anchor="middle" x="699" y="-183" font-family="Helvetica,sans-Serif" font-size="10.00">main.c</text>
</a>
</g>
</g>
<!-- Node2 -->
<g id="Node000002" class="node">
<title>Node2</title>
<g id="a_Node000002"><a xlink:title=" ">
<polygon fill="#e0e0e0" stroke="#999999" points="146,-19 74,-19 74,0 146,0 146,-19"/>
<text text-anchor="middle" x="110" y="-7" font-family="Helvetica,sans-Serif" font-size="10.00">FreeRTOS.h</text>
</a>
</g>
</g>
<!-- Node1&#45;&gt;Node2 -->
<g id="edge1_Node000001_Node000002" class="edge">
<title>Node1&#45;&gt;Node2</title>
<g id="a_edge1_Node000001_Node000002"><a xlink:title=" ">
<path fill="none" stroke="#63b8ff" d="M673.86,-184.07C564.61,-182.04 134.43,-172.04 84,-140 49.22,-117.9 28.05,-91.59 47,-55 54.04,-41.41 67.34,-31.09 79.92,-23.82"/>
<polygon fill="#63b8ff" stroke="#63b8ff" points="81.67,-26.86 88.85,-19.07 78.38,-20.68 81.67,-26.86"/>
</a>
</g>
</g>
<!-- Node3 -->
<g id="Node000003" class="node">
<title>Node3</title>
<g id="a_Node000003"><a xlink:title=" ">
<polygon fill="#e0e0e0" stroke="#999999" points="291.5,-19 244.5,-19 244.5,0 291.5,0 291.5,-19"/>
<text text-anchor="middle" x="268" y="-7" font-family="Helvetica,sans-Serif" font-size="10.00">task.h</text>
</a>
</g>
</g>
<!-- Node1&#45;&gt;Node3 -->
<g id="edge2_Node000001_Node000003" class="edge">
<title>Node1&#45;&gt;Node3</title>
<g id="a_edge2_Node000001_Node000003"><a xlink:title=" ">
<path fill="none" stroke="#63b8ff" d="M673.97,-182.87C610.48,-178.41 444.74,-164.67 396,-140 343.29,-113.32 299.33,-56.59 279.43,-27.89"/>
<polygon fill="#63b8ff" stroke="#63b8ff" points="282.13,-25.64 273.63,-19.32 276.33,-29.56 282.13,-25.64"/>
</a>
</g>
</g>
<!-- Node4 -->
<g id="Node000004" class="node">
<title>Node4</title>
<g id="a_Node000004"><a xlink:title=" ">
<polygon fill="#e0e0e0" stroke="#999999" points="1136.5,-134.5 1079.5,-134.5 1079.5,-115.5 1136.5,-115.5 1136.5,-134.5"/>
<text text-anchor="middle" x="1108" y="-122.5" font-family="Helvetica,sans-Serif" font-size="10.00">timers.h</text>
</a>
</g>
</g>
<!-- Node1&#45;&gt;Node4 -->
<g id="edge3_Node000001_Node000004" class="edge">
<title>Node1&#45;&gt;Node4</title>
<g id="a_edge3_Node000001_Node000004"><a xlink:title=" ">
<path fill="none" stroke="#63b8ff" d="M724.13,-183.13C783.86,-179.5 938.76,-167.95 1065,-140 1068.22,-139.29 1071.54,-138.43 1074.84,-137.5"/>
<polygon fill="#63b8ff" stroke="#63b8ff" points="1076.02,-140.8 1084.57,-134.54 1073.98,-134.1 1076.02,-140.8"/>
</a>
</g>
</g>
<!-- Node5 -->
<g id="Node000005" class="node">
<title>Node5</title>
<g id="a_Node000005"><a xlink:href="gse_8h.html" target="_top" xlink:title=" ">
<polygon fill="white" stroke="#666666" points="417.5,-74 374.5,-74 374.5,-55 417.5,-55 417.5,-74"/>
<text text-anchor="middle" x="396" y="-62" font-family="Helvetica,sans-Serif" font-size="10.00">gse.h</text>
</a>
</g>
</g>
<!-- Node1&#45;&gt;Node5 -->
<g id="edge4_Node000001_Node000005" class="edge">
<title>Node1&#45;&gt;Node5</title>
<g id="a_edge4_Node000001_Node000005"><a xlink:title=" ">
<path fill="none" stroke="#63b8ff" d="M673.84,-183.95C611.81,-182.08 453.82,-174 416,-140 400.54,-126.11 396.48,-101.68 395.67,-84.6"/>
<polygon fill="#63b8ff" stroke="#63b8ff" points="399.17,-84.12 395.53,-74.16 392.17,-84.21 399.17,-84.12"/>
</a>
</g>
</g>
<!-- Node6 -->
<g id="Node000006" class="node">
<title>Node6</title>
<g id="a_Node000006"><a xlink:title=" ">
<polygon fill="#e0e0e0" stroke="#999999" points="840,-19 790,-19 790,0 840,0 840,-19"/>
<text text-anchor="middle" x="815" y="-7" font-family="Helvetica,sans-Serif" font-size="10.00">stdio.h</text>
</a>
</g>
</g>
<!-- Node1&#45;&gt;Node6 -->
<g id="edge30_Node000001_Node000006" class="edge">
<title>Node1&#45;&gt;Node6</title>
<g id="a_edge30_Node000001_Node000006"><a xlink:title=" ">
<path fill="none" stroke="#63b8ff" d="M724.27,-184.44C784.58,-182.74 936.22,-168.8 994,-74 998.39,-66.79 999.2,-61.65 994,-55 976.49,-32.6 897.15,-19.87 850.18,-14.16"/>
<polygon fill="#63b8ff" stroke="#63b8ff" points="850.45,-10.67 840.12,-12.99 849.64,-17.63 850.45,-10.67"/>
</a>
</g>
</g>
<!-- Node11 -->
<g id="Node000011" class="node">
<title>Node11</title>
<g id="a_Node000011"><a xlink:title=" ">
<polygon fill="#e0e0e0" stroke="#999999" points="989.5,-19 942.5,-19 942.5,0 989.5,0 989.5,-19"/>
<text text-anchor="middle" x="966" y="-7" font-family="Helvetica,sans-Serif" font-size="10.00">tusb.h</text>
</a>
</g>
</g>
<!-- Node1&#45;&gt;Node11 -->
<g id="edge44_Node000001_Node000011" class="edge">
<title>Node1&#45;&gt;Node11</title>
<g id="a_edge44_Node000001_Node000011"><a xlink:title=" ">
<path fill="none" stroke="#63b8ff" d="M724.29,-182.49C781.45,-177.59 918.71,-163.63 958,-140 995.75,-117.29 1025.51,-95.85 1009,-55 1004.31,-43.41 995,-33.16 986.24,-25.43"/>
<polygon fill="#63b8ff" stroke="#63b8ff" points="988.44,-22.71 978.49,-19.07 984,-28.12 988.44,-22.71"/>
</a>
</g>
</g>
<!-- Node13 -->
<g id="Node000013" class="node">
<title>Node13</title>
<g id="a_Node000013"><a xlink:href="log_8h.html" target="_top" xlink:title=" ">
<polygon fill="white" stroke="#666666" points="466.5,-134.5 425.5,-134.5 425.5,-115.5 466.5,-115.5 466.5,-134.5"/>
<text text-anchor="middle" x="446" y="-122.5" font-family="Helvetica,sans-Serif" font-size="10.00">log.h</text>
</a>
</g>
</g>
<!-- Node1&#45;&gt;Node13 -->
<g id="edge14_Node000001_Node000013" class="edge">
<title>Node1&#45;&gt;Node13</title>
<g id="a_edge14_Node000001_Node000013"><a xlink:title=" ">
<path fill="none" stroke="#63b8ff" d="M673.82,-178.68C627.14,-167.88 527.36,-144.81 476.77,-133.11"/>
<polygon fill="#63b8ff" stroke="#63b8ff" points="477.29,-129.64 466.76,-130.8 475.71,-136.46 477.29,-129.64"/>
</a>
</g>
</g>
<!-- Node14 -->
<g id="Node000014" class="node">
<title>Node14</title>
<g id="a_Node000014"><a xlink:title=" ">
<polygon fill="#e0e0e0" stroke="#999999" points="588,-74 512,-74 512,-55 588,-55 588,-74"/>
<text text-anchor="middle" x="550" y="-62" font-family="Helvetica,sans-Serif" font-size="10.00">pico/stdlib.h</text>
</a>
</g>
</g>
<!-- Node1&#45;&gt;Node14 -->
<g id="edge31_Node000001_Node000014" class="edge">
<title>Node1&#45;&gt;Node14</title>
<g id="a_edge31_Node000001_Node000014"><a xlink:title=" ">
<path fill="none" stroke="#63b8ff" d="M674.07,-175.88C654.73,-168.38 627.93,-156.19 608,-140 588,-123.76 570.7,-99.38 560.32,-82.98"/>
<polygon fill="#63b8ff" stroke="#63b8ff" points="563.25,-81.06 555.04,-74.36 557.28,-84.72 563.25,-81.06"/>
</a>
</g>
</g>
<!-- Node17 -->
<g id="Node000017" class="node">
<title>Node17</title>
<g id="a_Node000017"><a xlink:href="sensor__job_8h.html" target="_top" xlink:title=" ">
<polygon fill="white" stroke="#666666" points="236,-140 114,-140 114,-110 236,-110 236,-140"/>
<text text-anchor="start" x="122" y="-128" font-family="Helvetica,sans-Serif" font-size="10.00">steve/jobs/sensor_job</text>
<text text-anchor="middle" x="175" y="-117" font-family="Helvetica,sans-Serif" font-size="10.00">/sensor_job.h</text>
</a>
</g>
</g>
<!-- Node1&#45;&gt;Node17 -->
<g id="edge24_Node000001_Node000017" class="edge">
<title>Node1&#45;&gt;Node17</title>
<g id="a_edge24_Node000001_Node000017"><a xlink:title=" ">
<path fill="none" stroke="#63b8ff" d="M673.83,-182.65C605.9,-177.53 413.2,-162.03 254,-140 251.46,-139.65 248.89,-139.28 246.28,-138.89"/>
<polygon fill="#63b8ff" stroke="#63b8ff" points="246.59,-135.39 236.17,-137.31 245.51,-142.31 246.59,-135.39"/>
</a>
</g>
</g>
<!-- Node18 -->
<g id="Node000018" class="node">
<title>Node18</title>
<g id="a_Node000018"><a xlink:href="steve_8h.html" target="_top" xlink:title=" ">
<polygon fill="white" stroke="#666666" points="109.5,-74 56.5,-74 56.5,-55 109.5,-55 109.5,-74"/>
<text text-anchor="middle" x="83" y="-62" font-family="Helvetica,sans-Serif" font-size="10.00">steve.h</text>
</a>
</g>
</g>
<!-- Node1&#45;&gt;Node18 -->
<g id="edge29_Node000001_Node000018" class="edge">
<title>Node1&#45;&gt;Node18</title>
<g id="a_edge29_Node000001_Node000018"><a xlink:title=" ">
<path fill="none" stroke="#63b8ff" d="M673.81,-184.27C566.36,-183.09 149.81,-176.18 105,-140 88.47,-126.66 83.95,-101.53 82.92,-84.17"/>
<polygon fill="#63b8ff" stroke="#63b8ff" points="86.42,-84 82.66,-74.09 79.42,-84.18 86.42,-84"/>
</a>
</g>
</g>
<!-- Node19 -->
<g id="Node000019" class="node">
<title>Node19</title>
<g id="a_Node000019"><a xlink:title=" ">
<polygon fill="#e0e0e0" stroke="#999999" points="1219.5,-134.5 1154.5,-134.5 1154.5,-115.5 1219.5,-115.5 1219.5,-134.5"/>
<text text-anchor="middle" x="1187" y="-122.5" font-family="Helvetica,sans-Serif" font-size="10.00">projdefs.h</text>
</a>
</g>
</g>
<!-- Node1&#45;&gt;Node19 -->
<g id="edge32_Node000001_Node000019" class="edge">
<title>Node1&#45;&gt;Node19</title>
<g id="a_edge32_Node000001_Node000019"><a xlink:title=" ">
<path fill="none" stroke="#63b8ff" d="M724.03,-184.02C792.41,-182.27 987.87,-174.39 1146,-140 1149.06,-139.33 1152.21,-138.51 1155.34,-137.61"/>
<polygon fill="#63b8ff" stroke="#63b8ff" points="1156.66,-140.86 1165.13,-134.5 1154.54,-134.19 1156.66,-140.86"/>
</a>
</g>
</g>
<!-- Node20 -->
<g id="Node000020" class="node">
<title>Node20</title>
<g id="a_Node000020"><a xlink:title=" ">
<polygon fill="#e0e0e0" stroke="#999999" points="1332.5,-134.5 1237.5,-134.5 1237.5,-115.5 1332.5,-115.5 1332.5,-134.5"/>
<text text-anchor="middle" x="1285" y="-122.5" font-family="Helvetica,sans-Serif" font-size="10.00">hardware/gpio.h</text>
</a>
</g>
</g>
<!-- Node1&#45;&gt;Node20 -->
<g id="edge33_Node000001_Node000020" class="edge">
<title>Node1&#45;&gt;Node20</title>
<g id="a_edge33_Node000001_Node000020"><a xlink:title=" ">
<path fill="none" stroke="#63b8ff" d="M724.01,-183.83C800.26,-181.48 1036.34,-171.96 1229,-140 1234.12,-139.15 1239.46,-138.07 1244.72,-136.89"/>
<polygon fill="#63b8ff" stroke="#63b8ff" points="1245.75,-140.25 1254.67,-134.53 1244.13,-133.43 1245.75,-140.25"/>
</a>
</g>
</g>
<!-- Node21 -->
<g id="Node000021" class="node">
<title>Node21</title>
<g id="a_Node000021"><a xlink:title=" ">
<polygon fill="#e0e0e0" stroke="#999999" points="1437.5,-134.5 1350.5,-134.5 1350.5,-115.5 1437.5,-115.5 1437.5,-134.5"/>
<text text-anchor="middle" x="1394" y="-122.5" font-family="Helvetica,sans-Serif" font-size="10.00">hardware/irq.h</text>
</a>
</g>
</g>
<!-- Node1&#45;&gt;Node21 -->
<g id="edge34_Node000001_Node000021" class="edge">
<title>Node1&#45;&gt;Node21</title>
<g id="a_edge34_Node000001_Node000021"><a xlink:title=" ">
<path fill="none" stroke="#63b8ff" d="M724.03,-184.51C810.43,-184.15 1103.9,-179.9 1342,-140 1346.71,-139.21 1351.61,-138.18 1356.43,-137.03"/>
<polygon fill="#63b8ff" stroke="#63b8ff" points="1357.32,-140.42 1366.15,-134.56 1355.6,-133.64 1357.32,-140.42"/>
</a>
</g>
</g>
<!-- Node22 -->
<g id="Node000022" class="node">
<title>Node22</title>
<g id="a_Node000022"><a xlink:href="usb__serial_8h.html" target="_top" xlink:title=" ">
<polygon fill="white" stroke="#666666" points="279.5,-74 204.5,-74 204.5,-55 279.5,-55 279.5,-74"/>
<text text-anchor="middle" x="242" y="-62" font-family="Helvetica,sans-Serif" font-size="10.00">usb_serial.h</text>
</a>
</g>
</g>
<!-- Node1&#45;&gt;Node22 -->
<g id="edge35_Node000001_Node000022" class="edge">
<title>Node1&#45;&gt;Node22</title>
<g id="a_edge35_Node000001_Node000022"><a xlink:title=" ">
<path fill="none" stroke="#63b8ff" d="M673.77,-184.41C595.58,-183.71 358.71,-178.39 294,-140 272.23,-127.08 257.32,-101.08 249.22,-83.48"/>
<polygon fill="#63b8ff" stroke="#63b8ff" points="252.41,-82.04 245.24,-74.24 245.99,-84.81 252.41,-82.04"/>
</a>
</g>
</g>
<!-- Node23 -->
<g id="Node000023" class="node">
<title>Node23</title>
<g id="a_Node000023"><a xlink:href="i2c__util_8h.html" target="_top" xlink:title=" ">
<polygon fill="white" stroke="#666666" points="773.5,-134.5 712.5,-134.5 712.5,-115.5 773.5,-115.5 773.5,-134.5"/>
<text text-anchor="middle" x="743" y="-122.5" font-family="Helvetica,sans-Serif" font-size="10.00">i2c_util.h</text>
</a>
</g>
</g>
<!-- Node1&#45;&gt;Node23 -->
<g id="edge40_Node000001_Node000023" class="edge">
<title>Node1&#45;&gt;Node23</title>
<g id="a_edge40_Node000001_Node000023"><a xlink:title=" ">
<path fill="none" stroke="#63b8ff" d="M705.49,-175.87C711.99,-167.23 722.16,-153.7 730.28,-142.92"/>
<polygon fill="#63b8ff" stroke="#63b8ff" points="733.27,-144.76 736.48,-134.67 727.67,-140.56 733.27,-144.76"/>
</a>
</g>
</g>
<!-- Node25 -->
<g id="Node000025" class="node">
<title>Node25</title>
<g id="a_Node000025"><a xlink:href="tusb__config_8h.html" target="_top" xlink:title="TinyUSB Config.">
<polygon fill="white" stroke="#666666" points="1536.5,-134.5 1455.5,-134.5 1455.5,-115.5 1536.5,-115.5 1536.5,-134.5"/>
<text text-anchor="middle" x="1496" y="-122.5" font-family="Helvetica,sans-Serif" font-size="10.00">tusb_config.h</text>
</a>
</g>
</g>
<!-- Node1&#45;&gt;Node25 -->
<g id="edge43_Node000001_Node000025" class="edge">
<title>Node1&#45;&gt;Node25</title>
<g id="a_edge43_Node000001_Node000025"><a xlink:title=" ">
<path fill="none" stroke="#63b8ff" d="M724.08,-184.99C819.21,-186.41 1166.47,-187.83 1447,-140 1451.27,-139.27 1455.69,-138.31 1460.06,-137.23"/>
<polygon fill="#63b8ff" stroke="#63b8ff" points="1461.3,-140.53 1470.05,-134.56 1459.49,-133.76 1461.3,-140.53"/>
</a>
</g>
</g>
<!-- Node26 -->
<g id="Node000026" class="node">
<title>Node26</title>
<g id="a_Node000026"><a xlink:href="timing_8h.html" target="_top" xlink:title=" ">
<polygon fill="white" stroke="#666666" points="856.5,-134.5 799.5,-134.5 799.5,-115.5 856.5,-115.5 856.5,-134.5"/>
<text text-anchor="middle" x="828" y="-122.5" font-family="Helvetica,sans-Serif" font-size="10.00">timing.h</text>
</a>
</g>
</g>
<!-- Node1&#45;&gt;Node26 -->
<g id="edge45_Node000001_Node000026" class="edge">
<title>Node1&#45;&gt;Node26</title>
<g id="a_edge45_Node000001_Node000026"><a xlink:title=" ">
<path fill="none" stroke="#63b8ff" d="M717.76,-175.99C739.35,-166.2 775.03,-150.02 799.93,-138.73"/>
<polygon fill="#63b8ff" stroke="#63b8ff" points="801.56,-141.83 809.22,-134.52 798.67,-135.46 801.56,-141.83"/>
</a>
</g>
</g>
<!-- Node28 -->
<g id="Node000028" class="node">
<title>Node28</title>
<g id="a_Node000028"><a xlink:href="filesystem_8h.html" target="_top" xlink:title=" ">
<polygon fill="white" stroke="#666666" points="694.5,-134.5 617.5,-134.5 617.5,-115.5 694.5,-115.5 694.5,-134.5"/>
<text text-anchor="middle" x="656" y="-122.5" font-family="Helvetica,sans-Serif" font-size="10.00">filesystem.h</text>
</a>
</g>
</g>
<!-- Node1&#45;&gt;Node28 -->
<g id="edge48_Node000001_Node000028" class="edge">
<title>Node1&#45;&gt;Node28</title>
<g id="a_edge48_Node000001_Node000028"><a xlink:title=" ">
<path fill="none" stroke="#63b8ff" d="M692.66,-175.87C686.3,-167.23 676.36,-153.7 668.43,-142.92"/>
<polygon fill="#63b8ff" stroke="#63b8ff" points="671.11,-140.65 662.37,-134.67 665.47,-144.8 671.11,-140.65"/>
</a>
</g>
</g>
<!-- Node5&#45;&gt;Node2 -->
<g id="edge9_Node000005_Node000002" class="edge">
<title>Node5&#45;&gt;Node2</title>
<g id="a_edge9_Node000005_Node000002"><a xlink:title=" ">
<path fill="none" stroke="#63b8ff" d="M374.39,-59.54C333.77,-52.09 243,-35.41 156.34,-19.25"/>
<polygon fill="#63b8ff" stroke="#63b8ff" points="156.82,-15.77 146.35,-17.38 155.53,-22.65 156.82,-15.77"/>
</a>
</g>
</g>
<!-- Node5&#45;&gt;Node3 -->
<g id="edge11_Node000005_Node000003" class="edge">
<title>Node5&#45;&gt;Node3</title>
<g id="a_edge11_Node000005_Node000003"><a xlink:title=" ">
<path fill="none" stroke="#63b8ff" d="M375.43,-54.98C354.57,-46.34 322.03,-32.87 298.23,-23.02"/>
<polygon fill="#63b8ff" stroke="#63b8ff" points="299.52,-19.76 288.94,-19.17 296.84,-26.23 299.52,-19.76"/>
</a>
</g>
</g>
<!-- Node5&#45;&gt;Node6 -->
<g id="edge5_Node000005_Node000006" class="edge">
<title>Node5&#45;&gt;Node6</title>
<g id="a_edge5_Node000005_Node000006"><a xlink:title=" ">
<path fill="none" stroke="#63b8ff" d="M417.64,-60.76C485.7,-52.15 695.81,-25.58 779.79,-14.95"/>
<polygon fill="#63b8ff" stroke="#63b8ff" points="780.37,-18.41 789.85,-13.68 779.49,-11.46 780.37,-18.41"/>
</a>
</g>
</g>
<!-- Node7 -->
<g id="Node000007" class="node">
<title>Node7</title>
<g id="a_Node000007"><a xlink:title=" ">
<polygon fill="#e0e0e0" stroke="#999999" points="532,-19 470,-19 470,0 532,0 532,-19"/>
<text text-anchor="middle" x="501" y="-7" font-family="Helvetica,sans-Serif" font-size="10.00">stdbool.h</text>
</a>
</g>
</g>
<!-- Node5&#45;&gt;Node7 -->
<g id="edge6_Node000005_Node000007" class="edge">
<title>Node5&#45;&gt;Node7</title>
<g id="a_edge6_Node000005_Node000007"><a xlink:title=" ">
<path fill="none" stroke="#63b8ff" d="M412.87,-54.98C429.61,-46.54 455.5,-33.47 474.89,-23.68"/>
<polygon fill="#63b8ff" stroke="#63b8ff" points="476.47,-26.8 483.82,-19.17 473.32,-20.55 476.47,-26.8"/>
</a>
</g>
</g>
<!-- Node8 -->
<g id="Node000008" class="node">
<title>Node8</title>
<g id="a_Node000008"><a xlink:title=" ">
<polygon fill="#e0e0e0" stroke="#999999" points="362.5,-19 309.5,-19 309.5,0 362.5,0 362.5,-19"/>
<text text-anchor="middle" x="336" y="-7" font-family="Helvetica,sans-Serif" font-size="10.00">stdlib.h</text>
</a>
</g>
</g>
<!-- Node5&#45;&gt;Node8 -->
<g id="edge7_Node000005_Node000008" class="edge">
<title>Node5&#45;&gt;Node8</title>
<g id="a_edge7_Node000005_Node000008"><a xlink:title=" ">
<path fill="none" stroke="#63b8ff" d="M386.36,-54.98C377.49,-47.15 364.13,-35.34 353.39,-25.86"/>
<polygon fill="#63b8ff" stroke="#63b8ff" points="355.63,-23.17 345.82,-19.17 350.99,-28.41 355.63,-23.17"/>
</a>
</g>
</g>
<!-- Node9 -->
<g id="Node000009" class="node">
<title>Node9</title>
<g id="a_Node000009"><a xlink:title=" ">
<polygon fill="#e0e0e0" stroke="#999999" points="603.5,-19 550.5,-19 550.5,0 603.5,0 603.5,-19"/>
<text text-anchor="middle" x="577" y="-7" font-family="Helvetica,sans-Serif" font-size="10.00">string.h</text>
</a>
</g>
</g>
<!-- Node5&#45;&gt;Node9 -->
<g id="edge8_Node000005_Node000009" class="edge">
<title>Node5&#45;&gt;Node9</title>
<g id="a_edge8_Node000005_Node000009"><a xlink:title=" ">
<path fill="none" stroke="#63b8ff" d="M417.83,-57.11C448.26,-48.2 503.8,-31.93 540.56,-21.17"/>
<polygon fill="#63b8ff" stroke="#63b8ff" points="541.78,-24.46 550.39,-18.29 539.81,-17.74 541.78,-24.46"/>
</a>
</g>
</g>
<!-- Node10 -->
<g id="Node000010" class="node">
<title>Node10</title>
<g id="a_Node000010"><a xlink:title=" ">
<polygon fill="#e0e0e0" stroke="#999999" points="226,-19 164,-19 164,0 226,0 226,-19"/>
<text text-anchor="middle" x="195" y="-7" font-family="Helvetica,sans-Serif" font-size="10.00">semphr.h</text>
</a>
</g>
</g>
<!-- Node5&#45;&gt;Node10 -->
<g id="edge10_Node000005_Node000010" class="edge">
<title>Node5&#45;&gt;Node10</title>
<g id="a_edge10_Node000005_Node000010"><a xlink:title=" ">
<path fill="none" stroke="#63b8ff" d="M374.49,-57.83C341.56,-49.14 278.05,-32.4 236.1,-21.34"/>
<polygon fill="#63b8ff" stroke="#63b8ff" points="236.75,-17.89 226.19,-18.72 234.96,-24.66 236.75,-17.89"/>
</a>
</g>
</g>
<!-- Node5&#45;&gt;Node11 -->
<g id="edge12_Node000005_Node000011" class="edge">
<title>Node5&#45;&gt;Node11</title>
<g id="a_edge12_Node000005_Node000011"><a xlink:title=" ">
<path fill="none" stroke="#63b8ff" d="M417.65,-61.49C504.35,-53.43 826.9,-23.43 932.38,-13.63"/>
<polygon fill="#63b8ff" stroke="#63b8ff" points="932.83,-17.1 942.46,-12.69 932.18,-10.13 932.83,-17.1"/>
</a>
</g>
</g>
<!-- Node12 -->
<g id="Node000012" class="node">
<title>Node12</title>
<g id="a_Node000012"><a xlink:title=" ">
<polygon fill="#e0e0e0" stroke="#999999" points="451.5,-19 380.5,-19 380.5,0 451.5,0 451.5,-19"/>
<text text-anchor="middle" x="416" y="-7" font-family="Helvetica,sans-Serif" font-size="10.00">pico/error.h</text>
</a>
</g>
</g>
<!-- Node5&#45;&gt;Node12 -->
<g id="edge13_Node000005_Node000012" class="edge">
<title>Node5&#45;&gt;Node12</title>
<g id="a_edge13_Node000005_Node000012"><a xlink:title=" ">
<path fill="none" stroke="#63b8ff" d="M399.3,-54.75C401.98,-47.65 405.85,-37.4 409.19,-28.56"/>
<polygon fill="#63b8ff" stroke="#63b8ff" points="412.5,-29.68 412.76,-19.09 405.95,-27.21 412.5,-29.68"/>
</a>
</g>
</g>
<!-- Node13&#45;&gt;Node2 -->
<g id="edge19_Node000013_Node000002" class="edge">
<title>Node13&#45;&gt;Node2</title>
<g id="a_edge19_Node000013_Node000002"><a xlink:title=" ">
<path fill="none" stroke="#63b8ff" d="M425.17,-123.61C379.29,-122.02 267.02,-113.99 184,-74 160.29,-62.58 138.08,-41.61 124.3,-26.9"/>
<polygon fill="#63b8ff" stroke="#63b8ff" points="126.52,-24.14 117.21,-19.08 121.33,-28.84 126.52,-24.14"/>
</a>
</g>
</g>
<!-- Node13&#45;&gt;Node3 -->
<g id="edge20_Node000013_Node000003" class="edge">
<title>Node13&#45;&gt;Node3</title>
<g id="a_edge20_Node000013_Node000003"><a xlink:title=" ">
<path fill="none" stroke="#63b8ff" d="M431.88,-115.44C415.66,-105.57 388.29,-88.81 365,-74 338.75,-57.31 308.85,-37.63 289.27,-24.66"/>
<polygon fill="#63b8ff" stroke="#63b8ff" points="291.06,-21.65 280.8,-19.03 287.19,-27.48 291.06,-21.65"/>
</a>
</g>
</g>
<!-- Node13&#45;&gt;Node5 -->
<g id="edge23_Node000013_Node000005" class="edge">
<title>Node13&#45;&gt;Node5</title>
<g id="a_edge23_Node000013_Node000005"><a xlink:title=" ">
<path fill="none" stroke="#63b8ff" d="M438.62,-115.37C431.09,-106.55 419.21,-92.66 409.91,-81.77"/>
<polygon fill="#63b8ff" stroke="#63b8ff" points="412.57,-79.5 403.41,-74.17 407.24,-84.04 412.57,-79.5"/>
</a>
</g>
</g>
<!-- Node13&#45;&gt;Node7 -->
<g id="edge18_Node000013_Node000007" class="edge">
<title>Node13&#45;&gt;Node7</title>
<g id="a_edge18_Node000013_Node000007"><a xlink:title=" ">
<path fill="none" stroke="#63b8ff" d="M448.23,-115.19C451.81,-101.76 459.51,-75.56 470,-55 474.91,-45.37 481.65,-35.43 487.59,-27.39"/>
<polygon fill="#63b8ff" stroke="#63b8ff" points="490.53,-29.31 493.82,-19.24 484.97,-25.06 490.53,-29.31"/>
</a>
</g>
</g>
<!-- Node13&#45;&gt;Node9 -->
<g id="edge16_Node000013_Node000009" class="edge">
<title>Node13&#45;&gt;Node9</title>
<g id="a_edge16_Node000013_Node000009"><a xlink:title=" ">
<path fill="none" stroke="#63b8ff" d="M451.85,-115.12C461.37,-101.14 481.33,-73.65 503,-55 517.26,-42.72 535.32,-31.79 550.03,-23.83"/>
<polygon fill="#63b8ff" stroke="#63b8ff" points="551.92,-26.79 559.14,-19.05 548.66,-20.6 551.92,-26.79"/>
</a>
</g>
</g>
<!-- Node13&#45;&gt;Node10 -->
<g id="edge22_Node000013_Node000010" class="edge">
<title>Node13&#45;&gt;Node10</title>
<g id="a_edge22_Node000013_Node000010"><a xlink:title=" ">
<path fill="none" stroke="#63b8ff" d="M425.14,-123.11C370.28,-120.3 224.17,-109.55 195,-74 184.85,-61.63 186.21,-42.86 189.29,-28.94"/>
<polygon fill="#63b8ff" stroke="#63b8ff" points="192.74,-29.59 191.95,-19.02 185.98,-27.78 192.74,-29.59"/>
</a>
</g>
</g>
<!-- Node13&#45;&gt;Node14 -->
<g id="edge15_Node000013_Node000014" class="edge">
<title>Node13&#45;&gt;Node14</title>
<g id="a_edge15_Node000013_Node000014"><a xlink:title=" ">
<path fill="none" stroke="#63b8ff" d="M461.35,-115.37C478.32,-105.82 505.9,-90.31 525.79,-79.12"/>
<polygon fill="#63b8ff" stroke="#63b8ff" points="527.59,-82.12 534.59,-74.17 524.16,-76.02 527.59,-82.12"/>
</a>
</g>
</g>
<!-- Node15 -->
<g id="Node000015" class="node">
<title>Node15</title>
<g id="a_Node000015"><a xlink:title=" ">
<polygon fill="#e0e0e0" stroke="#999999" points="854.5,-74 801.5,-74 801.5,-55 854.5,-55 854.5,-74"/>
<text text-anchor="middle" x="828" y="-62" font-family="Helvetica,sans-Serif" font-size="10.00">stdint.h</text>
</a>
</g>
</g>
<!-- Node13&#45;&gt;Node15 -->
<g id="edge17_Node000013_Node000015" class="edge">
<title>Node13&#45;&gt;Node15</title>
<g id="a_edge17_Node000013_Node000015"><a xlink:title=" ">
<path fill="none" stroke="#63b8ff" d="M466.78,-121.65C519.33,-115.56 661.97,-98.19 791.25,-73.98"/>
<polygon fill="#63b8ff" stroke="#63b8ff" points="792.14,-77.37 801.32,-72.08 790.84,-70.5 792.14,-77.37"/>
</a>
</g>
</g>
<!-- Node16 -->
<g id="Node000016" class="node">
<title>Node16</title>
<g id="a_Node000016"><a xlink:title=" ">
<polygon fill="#e0e0e0" stroke="#999999" points="56,-19 0,-19 0,0 56,0 56,-19"/>
<text text-anchor="middle" x="28" y="-7" font-family="Helvetica,sans-Serif" font-size="10.00">queue.h</text>
</a>
</g>
</g>
<!-- Node13&#45;&gt;Node16 -->
<g id="edge21_Node000013_Node000016" class="edge">
<title>Node13&#45;&gt;Node16</title>
<g id="a_edge21_Node000013_Node000016"><a xlink:title=" ">
<path fill="none" stroke="#63b8ff" d="M425.5,-122.73C348.05,-117.77 76.21,-98.72 47,-74 34.11,-63.09 29.75,-43.82 28.38,-29.36"/>
<polygon fill="#63b8ff" stroke="#63b8ff" points="31.86,-28.84 27.82,-19.05 24.87,-29.22 31.86,-28.84"/>
</a>
</g>
</g>
<!-- Node17&#45;&gt;Node18 -->
<g id="edge25_Node000017_Node000018" class="edge">
<title>Node17&#45;&gt;Node18</title>
<g id="a_edge25_Node000017_Node000018"><a xlink:title=" ">
<path fill="none" stroke="#63b8ff" d="M152.73,-109.84C138.33,-100.68 119.67,-88.82 105.27,-79.66"/>
<polygon fill="#63b8ff" stroke="#63b8ff" points="106.83,-76.51 96.52,-74.09 103.08,-82.41 106.83,-76.51"/>
</a>
</g>
</g>
<!-- Node18&#45;&gt;Node2 -->
<g id="edge26_Node000018_Node000002" class="edge">
<title>Node18&#45;&gt;Node2</title>
<g id="a_edge26_Node000018_Node000002"><a xlink:title=" ">
<path fill="none" stroke="#63b8ff" d="M87.46,-54.75C91.12,-47.57 96.41,-37.18 100.95,-28.27"/>
<polygon fill="#63b8ff" stroke="#63b8ff" points="104.2,-29.59 105.62,-19.09 97.97,-26.41 104.2,-29.59"/>
</a>
</g>
</g>
<!-- Node18&#45;&gt;Node10 -->
<g id="edge28_Node000018_Node000010" class="edge">
<title>Node18&#45;&gt;Node10</title>
<g id="a_edge28_Node000018_Node000010"><a xlink:title=" ">
<path fill="none" stroke="#63b8ff" d="M100.99,-54.98C118.93,-46.5 146.72,-33.35 167.43,-23.54"/>
<polygon fill="#63b8ff" stroke="#63b8ff" points="169.14,-26.61 176.68,-19.17 166.14,-20.28 169.14,-26.61"/>
</a>
</g>
</g>
<!-- Node18&#45;&gt;Node16 -->
<g id="edge27_Node000018_Node000016" class="edge">
<title>Node18&#45;&gt;Node16</title>
<g id="a_edge27_Node000018_Node000016"><a xlink:title=" ">
<path fill="none" stroke="#63b8ff" d="M73.92,-54.75C65.91,-47.03 54.04,-35.6 44.38,-26.28"/>
<polygon fill="#63b8ff" stroke="#63b8ff" points="46.54,-23.51 36.91,-19.09 41.69,-28.55 46.54,-23.51"/>
</a>
</g>
</g>
<!-- Node22&#45;&gt;Node2 -->
<g id="edge36_Node000022_Node000002" class="edge">
<title>Node22&#45;&gt;Node2</title>
<g id="a_edge36_Node000022_Node000002"><a xlink:title=" ">
<path fill="none" stroke="#63b8ff" d="M220.79,-54.98C199.27,-46.34 165.72,-32.87 141.17,-23.02"/>
<polygon fill="#63b8ff" stroke="#63b8ff" points="142.18,-19.65 131.59,-19.17 139.57,-26.14 142.18,-19.65"/>
</a>
</g>
</g>
<!-- Node22&#45;&gt;Node3 -->
<g id="edge38_Node000022_Node000003" class="edge">
<title>Node22&#45;&gt;Node3</title>
<g id="a_edge38_Node000022_Node000003"><a xlink:title=" ">
<path fill="none" stroke="#63b8ff" d="M246.29,-54.75C249.81,-47.57 254.91,-37.18 259.28,-28.27"/>
<polygon fill="#63b8ff" stroke="#63b8ff" points="262.52,-29.61 263.79,-19.09 256.24,-26.53 262.52,-29.61"/>
</a>
</g>
</g>
<!-- Node22&#45;&gt;Node7 -->
<g id="edge39_Node000022_Node000007" class="edge">
<title>Node22&#45;&gt;Node7</title>
<g id="a_edge39_Node000022_Node000007"><a xlink:title=" ">
<path fill="none" stroke="#63b8ff" d="M279.81,-55.82C321.34,-47.37 390.27,-33.33 459.84,-19.03"/>
<polygon fill="#63b8ff" stroke="#63b8ff" points="460.57,-22.45 469.66,-17.01 459.16,-15.59 460.57,-22.45"/>
</a>
</g>
</g>
<!-- Node22&#45;&gt;Node10 -->
<g id="edge37_Node000022_Node000010" class="edge">
<title>Node22&#45;&gt;Node10</title>
<g id="a_edge37_Node000022_Node000010"><a xlink:title=" ">
<path fill="none" stroke="#63b8ff" d="M234.24,-54.75C227.53,-47.18 217.66,-36.05 209.49,-26.84"/>
<polygon fill="#63b8ff" stroke="#63b8ff" points="211.87,-24.25 202.62,-19.09 206.63,-28.89 211.87,-24.25"/>
</a>
</g>
</g>
<!-- Node23&#45;&gt;Node15 -->
<g id="edge41_Node000023_Node000015" class="edge">
<title>Node23&#45;&gt;Node15</title>
<g id="a_edge41_Node000023_Node000015"><a xlink:title=" ">
<path fill="none" stroke="#63b8ff" d="M755.54,-115.37C769.1,-106.04 790.94,-91.01 807.1,-79.88"/>
<polygon fill="#63b8ff" stroke="#63b8ff" points="809.15,-82.72 815.41,-74.17 805.18,-76.95 809.15,-82.72"/>
</a>
</g>
</g>
<!-- Node24 -->
<g id="Node000024" class="node">
<title>Node24</title>
<g id="a_Node000024"><a xlink:title=" ">
<polygon fill="#e0e0e0" stroke="#999999" points="783.5,-74 694.5,-74 694.5,-55 783.5,-55 783.5,-74"/>
<text text-anchor="middle" x="739" y="-62" font-family="Helvetica,sans-Serif" font-size="10.00">hardware/i2c.h</text>
</a>
</g>
</g>
<!-- Node23&#45;&gt;Node24 -->
<g id="edge42_Node000023_Node000024" class="edge">
<title>Node23&#45;&gt;Node24</title>
<g id="a_edge42_Node000023_Node000024"><a xlink:title=" ">
<path fill="none" stroke="#63b8ff" d="M742.41,-115.37C741.85,-107.25 741,-94.81 740.29,-84.39"/>
<polygon fill="#63b8ff" stroke="#63b8ff" points="743.77,-83.91 739.59,-74.17 736.78,-84.38 743.77,-83.91"/>
</a>
</g>
</g>
<!-- Node26&#45;&gt;Node15 -->
<g id="edge46_Node000026_Node000015" class="edge">
<title>Node26&#45;&gt;Node15</title>
<g id="a_edge46_Node000026_Node000015"><a xlink:title=" ">
<path fill="none" stroke="#63b8ff" d="M828,-115.37C828,-107.25 828,-94.81 828,-84.39"/>
<polygon fill="#63b8ff" stroke="#63b8ff" points="831.5,-84.17 828,-74.17 824.5,-84.17 831.5,-84.17"/>
</a>
</g>
</g>
<!-- Node27 -->
<g id="Node000027" class="node">
<title>Node27</title>
<g id="a_Node000027"><a xlink:title=" ">
<polygon fill="#e0e0e0" stroke="#999999" points="985,-74 873,-74 873,-55 985,-55 985,-74"/>
<text text-anchor="middle" x="929" y="-62" font-family="Helvetica,sans-Serif" font-size="10.00">pico/util/datetime.h</text>
</a>
</g>
</g>
<!-- Node26&#45;&gt;Node27 -->
<g id="edge47_Node000026_Node000027" class="edge">
<title>Node26&#45;&gt;Node27</title>
<g id="a_edge47_Node000026_Node000027"><a xlink:title=" ">
<path fill="none" stroke="#63b8ff" d="M842.9,-115.37C859.31,-105.86 885.93,-90.45 905.23,-79.27"/>
<polygon fill="#63b8ff" stroke="#63b8ff" points="907.14,-82.21 914.04,-74.17 903.63,-76.15 907.14,-82.21"/>
</a>
</g>
</g>
<!-- Node28&#45;&gt;Node7 -->
<g id="edge50_Node000028_Node000007" class="edge">
<title>Node28&#45;&gt;Node7</title>
<g id="a_edge50_Node000028_Node000007"><a xlink:title=" ">
<path fill="none" stroke="#63b8ff" d="M650.42,-115.32C640.92,-101.11 620.36,-72.71 597,-55 578.8,-41.2 555.64,-30.31 536.62,-22.76"/>
<polygon fill="#63b8ff" stroke="#63b8ff" points="537.69,-19.42 527.1,-19.11 535.19,-25.96 537.69,-19.42"/>
</a>
</g>
</g>
<!-- Node29 -->
<g id="Node000029" class="node">
<title>Node29</title>
<g id="a_Node000029"><a xlink:title=" ">
<polygon fill="#e0e0e0" stroke="#999999" points="676,-74 644,-74 644,-55 676,-55 676,-74"/>
<text text-anchor="middle" x="660" y="-62" font-family="Helvetica,sans-Serif" font-size="10.00">ff.h</text>
</a>
</g>
</g>
<!-- Node28&#45;&gt;Node29 -->
<g id="edge49_Node000028_Node000029" class="edge">
<title>Node28&#45;&gt;Node29</title>
<g id="a_edge49_Node000028_Node000029"><a xlink:title=" ">
<path fill="none" stroke="#63b8ff" d="M656.59,-115.37C657.15,-107.25 658,-94.81 658.71,-84.39"/>
<polygon fill="#63b8ff" stroke="#63b8ff" points="662.22,-84.38 659.41,-74.17 655.23,-83.91 662.22,-84.38"/>
</a>
</g>
</g>
</g>
</svg>

<g id="navigator" transform="translate(0 0)" fill="#404254">
  <rect fill="#f2f5e9" fill-opacity="0.5" stroke="#606060" stroke-width=".5" x="0" y="0" width="60" height="60"/>
  <use id="zoomplus" xlink:href="#zoomPlus" x="17" y="9" onmousedown="handleZoom(evt,'in')"/>
  <use id="zoomminus" xlink:href="#zoomMin" x="42" y="9" onmousedown="handleZoom(evt,'out')"/>
  <use id="reset" xlink:href="#resetDef" x="30" y="36" onmousedown="handleReset()"/>
   <use id="arrowup" xlink:href="#arrowUp" x="0" y="0" onmousedown="handlePan(0,-1)"/>
  <use id="arrowright" xlink:href="#arrowRight" x="0" y="0" onmousedown="handlePan(1,0)"/>
  <use id="arrowdown" xlink:href="#arrowDown" x="0" y="0" onmousedown="handlePan(0,1)"/>
  <use id="arrowleft" xlink:href="#arrowLeft" x="0" y="0" onmousedown="handlePan(-1,0)"/>
</g>
<svg viewBox="0 0 15 15" width="100%" height="30px" preserveAspectRatio="xMaxYMin meet">
 <g id="arrow_out" transform="scale(0.3 0.3)">
  <a xlink:href="main_8c__incl_org.svg" target="_base">
   <rect id="button" ry="5" rx="5" y="6" x="6" height="38" width="38"
        fill="#f2f5e9" fill-opacity="0.5" stroke="#606060" stroke-width="1.0"/>
   <path id="arrow"
     d="M 11.500037,31.436501 C 11.940474,20.09759 22.043105,11.32322 32.158766,21.979434 L 37.068811,17.246167 C 37.068811,17.246167 37.088388,32 37.088388,32 L 22.160133,31.978069 C 22.160133,31.978069 26.997745,27.140456 26.997745,27.140456 C 18.528582,18.264221 13.291696,25.230495 11.500037,31.436501 z"
     style="fill:#404040;"/>
  </a>
 </g>
</svg>

<style type='text/css'>
<![CDATA[
[data-mouse-over-selected='false'] { opacity: 0.7; }
[data-mouse-over-selected='true']  { opacity: 1.0; }
]]>
</style>
<script type="application/ecmascript"><![CDATA[
document.addEventListener('DOMContentLoaded', (event) => {
  highlightEdges();
  highlightAdjacentNodes();
});
]]></script>
</svg>
